# xmcd
#
# Track frame offsets:
#	150
#	1805
#	12385
#	22500
#	32820
#	44839
#	56547
#	69197
#	82902
#	95776
#	108255
#	120193
#	133587
#	144381
#	153616
#	164127
#	174128
#	187398
#	198339
#	210872
#	223773
#	236750
#	248519
#	262654
#	273800
#
# Disc length: 3821 seconds
#
# Revision: 0
# Processed by: cddbd v1.5.2PL0 Copyright (c) Steve Scherf et al.
# Submitted via: audiograbber 1.83.01
#
DISCID=490eeb19
DTITLE=Various Artist - TL Sound Volume 5
DYEAR=1900
DGENRE=
TTITLE0=Terry Lee - Intro
TTITLE1=Viscounts - Harlem Nocturne
TTITLE2=Debonairs - Every Once In Awhile
TTITLE3=Four Pearls - Look At Me
TTITLE4=Henrietta - I Love Him
TTITLE5=Irma Thomas - He's My Guy
TTITLE6=Players - He'll Be Back
TTITLE7=Players - I'm Glad You Waited
TTITLE8=Ben Aiken - Stay Together Young Lovers
TTITLE9=Contrasts - My Heart Cries
TTITLE10=Citations - The Girl Next Door
TTITLE11=Embers - Abigail
TTITLE12=El Domingos - Made In Heaven
TTITLE13=Fantastics - There Goes My Love
TTITLE14=Four Buddies - Lonely Summer
TTITLE15=Soul-Mates - I Want A Boyfriend
TTITLE16=Elgins - It's Been A Long Time
TTITLE17=Enchantments - Lonely Heart
TTITLE18=Heartbeats - One Million Years
TTITLE19=5 Chanels - The Reason
TTITLE20=Bleu Lights - A Lonely Man's Prayer
TTITLE21=Bennie Turner and Group - I Want To Know
TTITLE22=Calveys - The Wind
TTITLE23=Hollywood Flames - Letter To My Love
TTITLE24=Honeys - Goodnight My Love
EXTD=
EXTT0=
EXTT1=
EXTT2=
EXTT3=
EXTT4=
EXTT5=
EXTT6=
EXTT7=
EXTT8=
EXTT9=
EXTT10=
EXTT11=
EXTT12=
EXTT13=
EXTT14=
EXTT15=
EXTT16=
EXTT17=
EXTT18=
EXTT19=
EXTT20=
EXTT21=
EXTT22=
EXTT23=
EXTT24=
PLAYORDER=
